<svg version="1.2" xmlns="http://www.w3.org/2000/svg" viewBox="0 0 916 464" width="916" height="464">
	<title>logo-svg</title>
	<style>
		.s0 { fill: #ffffff } 
	</style>
	<path id="Path 2" fill-rule="evenodd" class="s0" d="m268.7 274.3v126.8h-63.4v-126.8c0-24.1-19.4-44-44-44-21.9 0-40.5 16.5-43.5 38.1v132.7h-63.4v-126.8h-0.4c0-3 0-6.4 0.4-9.3v-183.5l63.4-21.1v115.8c13.5-5.9 28.3-9.3 43.5-9.3 28.8 0 55.8 11.4 76.1 31.7 20.3 20.3 31.3 47.4 31.3 75.7zm101.6 120c-14.4-5.9-27.5-14.8-38.5-25.8-11-11-19.8-24.1-25.7-38.4-6.4-14.8-9.4-30.5-9.4-47 0-16 3-31.7 9.4-46.9 5.9-13.9 14.7-27 25.7-38 11-11 24.1-19.9 38.5-25.8 14.8-6.3 30.4-9.7 46.9-9.7 16.1 0 31.7 3.4 46.9 9.7 14 5.9 27.1 14.8 38.1 25.8 11 11 19.8 23.7 25.8 38 6.3 15.2 9.7 30.9 9.7 46.9 0 16.5-3.4 32.2-9.7 47-6 14.3-14.8 27.4-25.8 38.4-11 11-23.7 19.9-38.1 25.8-15.2 6.4-30.8 9.3-46.9 9.3-16.5 0-32.1-2.9-46.9-9.3zm-10.1-111.2c0 31.8 25.3 57.1 57 57.1 31.3 0 57.1-25.3 57.1-57.1 0-31.2-25.8-57-57.1-57-31.7 0-57 25.8-57 57zm238.2-117.5l53.2 136.6 52.9-136.6h68.9l-95.6 235.5h-53.2l-95.6-235.5zm255.7-8.4v243.9h-63.8v-222.8z"/>
</svg>